Chauncy_WeightMin.ufo
<glyph name="numbersign" format="2">
  <advance width="598"/>
  <unicode hex="0023"/>
  <outline>
    <contour>
      <point x="195" y="307" type="curve" smooth="yes"/>
      <point x="173" y="97"/>
      <point x="137" y="63"/>
      <point x="139" y="26" type="curve" smooth="yes"/>
      <point x="140" y="1"/>
      <point x="156" y="-16"/>
      <point x="178" y="-16" type="curve" smooth="yes"/>
      <point x="195" y="-16"/>
      <point x="217" y="-7"/>
      <point x="220" y="24" type="curve" smooth="yes"/>
      <point x="225" y="58"/>
      <point x="211" y="95"/>
      <point x="234" y="307" type="curve" smooth="yes"/>
      <point x="255" y="514"/>
      <point x="289" y="550"/>
      <point x="287" y="588" type="curve" smooth="yes"/>
      <point x="286" y="613"/>
      <point x="272" y="629"/>
      <point x="251" y="629" type="curve" smooth="yes"/>
      <point x="226" y="629"/>
      <point x="209" y="617"/>
      <point x="204" y="586" type="curve" smooth="yes"/>
      <point x="198" y="544"/>
      <point x="220" y="547"/>
    </contour>
    <contour>
      <point x="370" y="307" type="curve" smooth="yes"/>
      <point x="349" y="98"/>
      <point x="312" y="63"/>
      <point x="314" y="26" type="curve" smooth="yes"/>
      <point x="315" y="1"/>
      <point x="331" y="-16"/>
      <point x="353" y="-16" type="curve" smooth="yes"/>
      <point x="370" y="-16"/>
      <point x="392" y="-7"/>
      <point x="396" y="24" type="curve" smooth="yes"/>
      <point x="401" y="58"/>
      <point x="387" y="96"/>
      <point x="409" y="307" type="curve" smooth="yes"/>
      <point x="430" y="514"/>
      <point x="464" y="550"/>
      <point x="462" y="588" type="curve" smooth="yes"/>
      <point x="461" y="613"/>
      <point x="447" y="629"/>
      <point x="426" y="629" type="curve" smooth="yes"/>
      <point x="400" y="629"/>
      <point x="384" y="617"/>
      <point x="380" y="586" type="curve" smooth="yes"/>
      <point x="373" y="545"/>
      <point x="394" y="531"/>
    </contour>
    <contour>
      <point x="304" y="370" type="curve" smooth="yes"/>
      <point x="458" y="370"/>
      <point x="484" y="350"/>
      <point x="511" y="350" type="curve" smooth="yes"/>
      <point x="543" y="350"/>
      <point x="558" y="371"/>
      <point x="558" y="392" type="curve" smooth="yes"/>
      <point x="558" y="410"/>
      <point x="544" y="428"/>
      <point x="515" y="428" type="curve" smooth="yes"/>
      <point x="490" y="428"/>
      <point x="461" y="407"/>
      <point x="304" y="408" type="curve" smooth="yes"/>
      <point x="152" y="408"/>
      <point x="124" y="429"/>
      <point x="98" y="429" type="curve" smooth="yes"/>
      <point x="66" y="429"/>
      <point x="52" y="412"/>
      <point x="52" y="393" type="curve" smooth="yes"/>
      <point x="52" y="369"/>
      <point x="67" y="353"/>
      <point x="99" y="352" type="curve" smooth="yes"/>
      <point x="124" y="351"/>
      <point x="152" y="370"/>
    </contour>
    <contour>
      <point x="292" y="203" type="curve" smooth="yes"/>
      <point x="446" y="203"/>
      <point x="472" y="184"/>
      <point x="499" y="184" type="curve" smooth="yes"/>
      <point x="531" y="184"/>
      <point x="546" y="205"/>
      <point x="546" y="226" type="curve" smooth="yes"/>
      <point x="546" y="244"/>
      <point x="532" y="262"/>
      <point x="502" y="262" type="curve" smooth="yes"/>
      <point x="478" y="262"/>
      <point x="450" y="241"/>
      <point x="292" y="242" type="curve" smooth="yes"/>
      <point x="140" y="242"/>
      <point x="112" y="263"/>
      <point x="85" y="263" type="curve" smooth="yes"/>
      <point x="54" y="263"/>
      <point x="40" y="246"/>
      <point x="40" y="227" type="curve" smooth="yes"/>
      <point x="40" y="203"/>
      <point x="55" y="187"/>
      <point x="86" y="186" type="curve" smooth="yes"/>
      <point x="112" y="185"/>
      <point x="139" y="203"/>
    </contour>
  </outline>
</glyph>
<glyph name="ampersand" format="2">
  <advance width="660"/>
  <unicode hex="0026"/>
  <outline>
    <contour>
      <point x="275" y="633" type="curve" smooth="yes"/>
      <point x="219" y="633"/>
      <point x="182" y="587"/>
      <point x="182" y="525" type="curve" smooth="yes"/>
      <point x="182" y="458"/>
      <point x="213" y="404"/>
      <point x="261" y="383" type="curve" smooth="yes"/>
      <point x="323" y="357"/>
      <point x="355" y="334"/>
      <point x="400" y="279" type="curve" smooth="yes"/>
      <point x="554" y="95" type="line" smooth="yes"/>
      <point x="574" y="71"/>
      <point x="592" y="50"/>
      <point x="625" y="44" type="curve" smooth="yes"/>
      <point x="648" y="39"/>
      <point x="657" y="34"/>
      <point x="657" y="20" type="curve" smooth="yes"/>
      <point x="657" y="6"/>
      <point x="646" y="-1"/>
      <point x="626" y="-1" type="curve" smooth="yes"/>
      <point x="550" y="-1" type="line" smooth="yes"/>
      <point x="518" y="-1"/>
      <point x="498" y="10"/>
      <point x="480" y="34" type="curve" smooth="yes"/>
      <point x="319" y="230" type="line" smooth="yes"/>
      <point x="280" y="278"/>
      <point x="254" y="301"/>
      <point x="201" y="324" type="curve" smooth="yes"/>
      <point x="137" y="350"/>
      <point x="96" y="412"/>
      <point x="96" y="490" type="curve" smooth="yes"/>
      <point x="96" y="593"/>
      <point x="185" y="675"/>
      <point x="290" y="675" type="curve" smooth="yes"/>
      <point x="392" y="675"/>
      <point x="453" y="617"/>
      <point x="453" y="532" type="curve" smooth="yes"/>
      <point x="453" y="446"/>
      <point x="400" y="388"/>
      <point x="284" y="342" type="curve"/>
      <point x="261" y="363" type="line"/>
      <point x="335" y="404"/>
      <point x="367" y="449"/>
      <point x="367" y="516" type="curve" smooth="yes"/>
      <point x="367" y="590"/>
      <point x="321" y="633"/>
    </contour>
    <contour>
      <point x="242" y="323" type="line"/>
      <point x="179" y="320"/>
      <point x="119" y="257"/>
      <point x="119" y="190" type="curve" smooth="yes"/>
      <point x="119" y="109"/>
      <point x="187" y="58"/>
      <point x="299" y="58" type="curve" smooth="yes"/>
      <point x="353" y="58"/>
      <point x="403" y="81"/>
      <point x="432" y="124" type="curve"/>
      <point x="458" y="99" type="line"/>
      <point x="390" y="15"/>
      <point x="323" y="-15"/>
      <point x="230" y="-15" type="curve" smooth="yes"/>
      <point x="103" y="-15"/>
      <point x="34" y="65"/>
      <point x="34" y="159" type="curve" smooth="yes"/>
      <point x="34" y="261"/>
      <point x="126" y="342"/>
      <point x="242" y="342" type="curve"/>
    </contour>
    <contour>
      <point x="470" y="178" type="line"/>
      <point x="515" y="255" type="line" smooth="yes"/>
      <point x="523" y="270"/>
      <point x="529" y="280"/>
      <point x="529" y="295" type="curve" smooth="yes"/>
      <point x="529" y="309"/>
      <point x="522" y="313"/>
      <point x="509" y="320" type="curve" smooth="yes"/>
      <point x="493" y="328" type="line" smooth="yes"/>
      <point x="475" y="337"/>
      <point x="467" y="339"/>
      <point x="467" y="352" type="curve" smooth="yes"/>
      <point x="467" y="366"/>
      <point x="477" y="369"/>
      <point x="494" y="369" type="curve" smooth="yes"/>
      <point x="636" y="369" type="line" smooth="yes"/>
      <point x="650" y="369"/>
      <point x="661" y="363"/>
      <point x="661" y="350" type="curve" smooth="yes"/>
      <point x="661" y="340"/>
      <point x="649" y="336"/>
      <point x="635" y="330" type="curve" smooth="yes"/>
      <point x="608" y="319"/>
      <point x="590" y="299"/>
      <point x="571" y="270" type="curve" smooth="yes"/>
      <point x="497" y="152" type="line"/>
    </contour>
  </outline>
</glyph>
<glyph name="parenleft" format="2">
  <advance width="395"/>
  <unicode hex="0028"/>
  <outline>
    <contour>
      <point x="91" y="287" type="curve" smooth="yes"/>
      <point x="91" y="56"/>
      <point x="218" y="-120"/>
      <point x="361" y="-172" type="curve" smooth="yes"/>
      <point x="364" y="-173"/>
      <point x="366" y="-173"/>
      <point x="369" y="-173" type="curve" smooth="yes"/>
      <point x="378" y="-173"/>
      <point x="384" y="-165"/>
      <point x="384" y="-155" type="curve" smooth="yes"/>
      <point x="384" y="-149"/>
      <point x="381" y="-141"/>
      <point x="372" y="-138" type="curve" smooth="yes"/>
      <point x="253" y="-83"/>
      <point x="179" y="71"/>
      <point x="179" y="287" type="curve" smooth="yes"/>
      <point x="179" y="504"/>
      <point x="253" y="658"/>
      <point x="372" y="712" type="curve" smooth="yes"/>
      <point x="381" y="716"/>
      <point x="384" y="723"/>
      <point x="384" y="730" type="curve" smooth="yes"/>
      <point x="384" y="739"/>
      <point x="378" y="748"/>
      <point x="369" y="748" type="curve" smooth="yes"/>
      <point x="366" y="748"/>
      <point x="364" y="748"/>
      <point x="361" y="747" type="curve" smooth="yes"/>
      <point x="218" y="694"/>
      <point x="91" y="519"/>
    </contour>
  </outline>
</glyph>
<glyph name="comma" format="2">
  <advance width="284"/>
  <unicode hex="002C"/>
  <outline>
    <contour>
      <point x="126" y="-18" type="curve" smooth="yes"/>
      <point x="144" y="-18" type="line" smooth="yes"/>
      <point x="158" y="-18"/>
      <point x="164" y="-26"/>
      <point x="164" y="-40" type="curve" smooth="yes"/>
      <point x="164" y="-105"/>
      <point x="139" y="-141"/>
      <point x="97" y="-151" type="curve" smooth="yes"/>
      <point x="77" y="-156"/>
      <point x="70" y="-165"/>
      <point x="70" y="-177" type="curve" smooth="yes"/>
      <point x="70" y="-191"/>
      <point x="81" y="-202"/>
      <point x="100" y="-202" type="curve" smooth="yes"/>
      <point x="157" y="-202"/>
      <point x="224" y="-133"/>
      <point x="224" y="-4" type="curve" smooth="yes"/>
      <point x="224" y="77"/>
      <point x="185" y="113"/>
      <point x="133" y="113" type="curve" smooth="yes"/>
      <point x="96" y="113"/>
      <point x="65" y="84"/>
      <point x="65" y="49" type="curve" smooth="yes"/>
      <point x="65" y="10"/>
      <point x="91" y="-18"/>
    </contour>
  </outline>
</glyph>
<glyph name="four" format="2">
  <advance width="515"/>
  <unicode hex="0034"/>
  <outline>
    <contour>
      <point x="285" y="335" type="curve" smooth="yes"/>
      <point x="286" y="99" type="line" smooth="yes"/>
      <point x="286" y="71"/>
      <point x="274" y="56"/>
      <point x="248" y="51" type="curve" smooth="yes"/>
      <point x="202" y="44" type="line" smooth="yes"/>
      <point x="183" y="41"/>
      <point x="173" y="35"/>
      <point x="173" y="20" type="curve" smooth="yes"/>
      <point x="173" y="6"/>
      <point x="182" y="0"/>
      <point x="205" y="0" type="curve" smooth="yes"/>
      <point x="450" y="0" type="line" smooth="yes"/>
      <point x="472" y="0"/>
      <point x="482" y="6"/>
      <point x="482" y="20" type="curve" smooth="yes"/>
      <point x="482" y="35"/>
      <point x="471" y="41"/>
      <point x="452" y="44" type="curve" smooth="yes"/>
      <point x="422" y="49" type="line" smooth="yes"/>
      <point x="397" y="52"/>
      <point x="384" y="68"/>
      <point x="384" y="96" type="curve" smooth="yes"/>
      <point x="383" y="428" type="line" smooth="yes"/>
      <point x="383" y="438"/>
      <point x="377" y="442"/>
      <point x="368" y="442" type="curve" smooth="yes"/>
      <point x="359" y="442"/>
      <point x="350" y="439"/>
      <point x="340" y="424" type="curve" smooth="yes"/>
      <point x="305" y="375" type="line" smooth="yes"/>
      <point x="295" y="360"/>
      <point x="285" y="349"/>
    </contour>
    <contour>
      <point x="166" y="412" type="curve" smooth="yes"/>
      <point x="36" y="239" type="line" smooth="yes"/>
      <point x="18" y="215"/>
      <point x="21" y="202"/>
      <point x="21" y="193" type="curve" smooth="yes"/>
      <point x="21" y="174"/>
      <point x="33" y="163"/>
      <point x="55" y="163" type="curve" smooth="yes"/>
      <point x="457" y="163" type="line" smooth="yes"/>
      <point x="476" y="163"/>
      <point x="486" y="172"/>
      <point x="485" y="192" type="curve" smooth="yes"/>
      <point x="484" y="208"/>
      <point x="473" y="215"/>
      <point x="457" y="215" type="curve" smooth="yes"/>
      <point x="52" y="215" type="line"/>
      <point x="68" y="185" type="line"/>
      <point x="267" y="457" type="line" smooth="yes"/>
      <point x="304" y="508"/>
      <point x="317" y="538"/>
      <point x="317" y="578" type="curve" smooth="yes"/>
      <point x="317" y="621"/>
      <point x="289" y="650"/>
      <point x="252" y="650" type="curve" smooth="yes"/>
      <point x="207" y="650"/>
      <point x="180" y="621"/>
      <point x="180" y="589" type="curve" smooth="yes"/>
      <point x="180" y="552"/>
      <point x="199" y="540"/>
      <point x="199" y="505" type="curve" smooth="yes"/>
      <point x="199" y="464"/>
      <point x="185" y="438"/>
    </contour>
  </outline>
</glyph>
<glyph name="A" format="2">
  <advance width="657"/>
  <unicode hex="0041"/>
  <anchor x="340" y="731" name="center"/>
  <outline>
    <contour>
      <point x="150" y="269" type="line"/>
      <point x="156" y="238" type="line"/>
      <point x="475" y="238" type="line"/>
      <point x="469" y="269" type="line"/>
    </contour>
    <contour>
      <point x="213" y="15" type="curve" smooth="yes"/>
      <point x="213" y="21"/>
      <point x="206" y="29"/>
      <point x="189" y="32" type="curve" smooth="yes"/>
      <point x="159" y="38" type="line" smooth="yes"/>
      <point x="134" y="43"/>
      <point x="127" y="73"/>
      <point x="144" y="122" type="curve" smooth="yes"/>
      <point x="316" y="632" type="line"/>
      <point x="331" y="632" type="line"/>
      <point x="509" y="92" type="line" smooth="yes"/>
      <point x="517" y="69"/>
      <point x="507" y="46"/>
      <point x="481" y="39" type="curve" smooth="yes"/>
      <point x="451" y="31" type="line" smooth="yes"/>
      <point x="441" y="28"/>
      <point x="435" y="24"/>
      <point x="435" y="14" type="curve" smooth="yes"/>
      <point x="435" y="5"/>
      <point x="443" y="0"/>
      <point x="455" y="0" type="curve" smooth="yes"/>
      <point x="635" y="0" type="line" smooth="yes"/>
      <point x="646" y="0"/>
      <point x="655" y="4"/>
      <point x="655" y="12" type="curve" smooth="yes"/>
      <point x="655" y="19"/>
      <point x="648" y="25"/>
      <point x="631" y="31" type="curve" smooth="yes"/>
      <point x="603" y="41"/>
      <point x="585" y="56"/>
      <point x="574" y="88" type="curve" smooth="yes"/>
      <point x="391" y="629" type="line" smooth="yes"/>
      <point x="385" y="647"/>
      <point x="387" y="659"/>
      <point x="396" y="668" type="curve" smooth="yes"/>
      <point x="404" y="675"/>
      <point x="410" y="681"/>
      <point x="410" y="687" type="curve" smooth="yes"/>
      <point x="410" y="695"/>
      <point x="403" y="700"/>
      <point x="393" y="700" type="curve" smooth="yes"/>
      <point x="267" y="700" type="line" smooth="yes"/>
      <point x="257" y="700"/>
      <point x="250" y="695"/>
      <point x="250" y="687" type="curve" smooth="yes"/>
      <point x="250" y="682"/>
      <point x="255" y="675"/>
      <point x="265" y="670" type="curve" smooth="yes"/>
      <point x="276" y="663"/>
      <point x="279" y="650"/>
      <point x="275" y="638" type="curve" smooth="yes"/>
      <point x="100" y="122" type="line" smooth="yes"/>
      <point x="78" y="56"/>
      <point x="50" y="41"/>
      <point x="24" y="32" type="curve" smooth="yes"/>
      <point x="7" y="25"/>
      <point x="2" y="20"/>
      <point x="2" y="11" type="curve" smooth="yes"/>
      <point x="2" y="3"/>
      <point x="8" y="0"/>
      <point x="22" y="0" type="curve" smooth="yes"/>
      <point x="192" y="0" type="line" smooth="yes"/>
      <point x="205" y="0"/>
      <point x="213" y="6"/>
    </contour>
  </outline>
</glyph>
<glyph name="D" format="2">
  <advance width="799"/>
  <unicode hex="0044"/>
  <outline>
    <contour>
      <point x="60" y="11" type="curve" smooth="yes"/>
      <point x="60" y="3"/>
      <point x="68" y="0"/>
      <point x="78" y="0" type="curve" smooth="yes"/>
      <point x="368" y="0" type="line" smooth="yes"/>
      <point x="570" y="0"/>
      <point x="722" y="135"/>
      <point x="722" y="333" type="curve" smooth="yes"/>
      <point x="722" y="552"/>
      <point x="551" y="700"/>
      <point x="322" y="700" type="curve" smooth="yes"/>
      <point x="75" y="700" type="line" smooth="yes"/>
      <point x="68" y="700"/>
      <point x="60" y="697"/>
      <point x="60" y="689" type="curve" smooth="yes"/>
      <point x="60" y="679"/>
      <point x="67" y="676"/>
      <point x="79" y="673" type="curve" smooth="yes"/>
      <point x="113" y="668" type="line" smooth="yes"/>
      <point x="136" y="664"/>
      <point x="150" y="645"/>
      <point x="150" y="621" type="curve" smooth="yes"/>
      <point x="150" y="81" type="line" smooth="yes"/>
      <point x="150" y="58"/>
      <point x="136" y="42"/>
      <point x="115" y="36" type="curve" smooth="yes"/>
      <point x="79" y="27" type="line" smooth="yes"/>
      <point x="68" y="25"/>
      <point x="60" y="21"/>
    </contour>
    <contour>
      <point x="372" y="36" type="curve" smooth="yes"/>
      <point x="264" y="36" type="line" smooth="yes"/>
      <point x="229" y="36"/>
      <point x="207" y="64"/>
      <point x="207" y="102" type="curve" smooth="yes"/>
      <point x="207" y="627" type="line" smooth="yes"/>
      <point x="207" y="649"/>
      <point x="219" y="664"/>
      <point x="242" y="664" type="curve" smooth="yes"/>
      <point x="327" y="664" type="line" smooth="yes"/>
      <point x="511" y="664"/>
      <point x="654" y="527"/>
      <point x="654" y="348" type="curve" smooth="yes"/>
      <point x="654" y="179"/>
      <point x="546" y="36"/>
    </contour>
  </outline>
</glyph>
<glyph name="M" format="2">
  <advance width="895"/>
  <unicode hex="004D"/>
  <outline>
    <contour>
      <point x="477" y="188" type="line"/>
      <point x="248" y="667" type="line" smooth="yes"/>
      <point x="237" y="690"/>
      <point x="225" y="700"/>
      <point x="204" y="700" type="curve" smooth="yes"/>
      <point x="97" y="700" type="line" smooth="yes"/>
      <point x="78" y="700"/>
      <point x="66" y="694"/>
      <point x="66" y="681" type="curve" smooth="yes"/>
      <point x="66" y="669"/>
      <point x="76" y="659"/>
      <point x="94" y="652" type="curve" smooth="yes"/>
      <point x="113" y="645" type="line" smooth="yes"/>
      <point x="132" y="638"/>
      <point x="146" y="626"/>
      <point x="145" y="606" type="curve" smooth="yes"/>
      <point x="114" y="113" type="line" smooth="yes"/>
      <point x="112" y="86"/>
      <point x="97" y="73"/>
      <point x="73" y="62" type="curve" smooth="yes"/>
      <point x="55" y="54" type="line" smooth="yes"/>
      <point x="31" y="43"/>
      <point x="22" y="35"/>
      <point x="22" y="21" type="curve" smooth="yes"/>
      <point x="22" y="5"/>
      <point x="35" y="0"/>
      <point x="53" y="0" type="curve" smooth="yes"/>
      <point x="229" y="0" type="line" smooth="yes"/>
      <point x="250" y="0"/>
      <point x="264" y="8"/>
      <point x="264" y="22" type="curve" smooth="yes"/>
      <point x="264" y="38"/>
      <point x="257" y="44"/>
      <point x="241" y="50" type="curve" smooth="yes"/>
      <point x="204" y="64" type="line" smooth="yes"/>
      <point x="176" y="75"/>
      <point x="164" y="91"/>
      <point x="165" y="113" type="curve" smooth="yes"/>
      <point x="196" y="592" type="line"/>
      <point x="169" y="585" type="line"/>
      <point x="399" y="104" type="line" smooth="yes"/>
      <point x="409" y="83"/>
      <point x="419" y="72"/>
      <point x="434" y="72" type="curve" smooth="yes"/>
      <point x="449" y="72"/>
      <point x="463" y="85"/>
      <point x="475" y="112" type="curve" smooth="yes"/>
      <point x="688" y="608" type="line"/>
      <point x="654" y="607" type="line"/>
      <point x="700" y="92" type="line" smooth="yes"/>
      <point x="702" y="66"/>
      <point x="691" y="52"/>
      <point x="673" y="48" type="curve" smooth="yes"/>
      <point x="648" y="42" type="line" smooth="yes"/>
      <point x="630" y="38"/>
      <point x="620" y="33"/>
      <point x="620" y="19" type="curve" smooth="yes"/>
      <point x="620" y="6"/>
      <point x="629" y="0"/>
      <point x="651" y="0" type="curve" smooth="yes"/>
      <point x="854" y="0" type="line" smooth="yes"/>
      <point x="876" y="0"/>
      <point x="885" y="6"/>
      <point x="885" y="19" type="curve" smooth="yes"/>
      <point x="885" y="33"/>
      <point x="874" y="36"/>
      <point x="857" y="42" type="curve" smooth="yes"/>
      <point x="841" y="48" type="line" smooth="yes"/>
      <point x="817" y="57"/>
      <point x="807" y="66"/>
      <point x="805" y="92" type="curve" smooth="yes"/>
      <point x="758" y="607" type="line" smooth="yes"/>
      <point x="756" y="633"/>
      <point x="767" y="648"/>
      <point x="785" y="652" type="curve" smooth="yes"/>
      <point x="812" y="658" type="line" smooth="yes"/>
      <point x="830" y="662"/>
      <point x="840" y="667"/>
      <point x="840" y="681" type="curve" smooth="yes"/>
      <point x="840" y="694"/>
      <point x="831" y="700"/>
      <point x="809" y="700" type="curve" smooth="yes"/>
      <point x="809" y="700"/>
      <point x="719" y="700"/>
      <point x="703" y="700" type="curve" smooth="yes"/>
      <point x="680" y="700"/>
      <point x="665" y="686"/>
      <point x="656" y="664" type="curve" smooth="yes"/>
      <point x="447" y="184" type="line"/>
    </contour>
  </outline>
</glyph>
<glyph name="a" format="2">
  <advance width="484"/>
  <unicode hex="0061"/>
  <anchor x="263" y="513" name="center"/>
  <outline>
    <contour>
      <point x="83" y="329" type="curve" smooth="yes"/>
      <point x="83" y="309"/>
      <point x="96" y="292"/>
      <point x="116" y="292" type="curve" smooth="yes"/>
      <point x="134" y="292"/>
      <point x="150" y="304"/>
      <point x="150" y="327" type="curve" smooth="yes"/>
      <point x="150" y="351" type="line" smooth="yes"/>
      <point x="150" y="405"/>
      <point x="181" y="438"/>
      <point x="244" y="438" type="curve" smooth="yes"/>
      <point x="314" y="438"/>
      <point x="352" y="399"/>
      <point x="352" y="322" type="curve" smooth="yes"/>
      <point x="352" y="48" type="line" smooth="yes"/>
      <point x="352" y="6"/>
      <point x="376" y="-16"/>
      <point x="405" y="-16" type="curve" smooth="yes"/>
      <point x="434" y="-16"/>
      <point x="461" y="1"/>
      <point x="461" y="21" type="curve" smooth="yes"/>
      <point x="461" y="28"/>
      <point x="458" y="30"/>
      <point x="455" y="30" type="curve" smooth="yes"/>
      <point x="447" y="30"/>
      <point x="441" y="18"/>
      <point x="425" y="18" type="curve" smooth="yes"/>
      <point x="412" y="18"/>
      <point x="399" y="32"/>
      <point x="399" y="55" type="curve" smooth="yes"/>
      <point x="399" y="337" type="line" smooth="yes"/>
      <point x="399" y="414"/>
      <point x="349" y="466"/>
      <point x="256" y="466" type="curve" smooth="yes"/>
      <point x="156" y="466"/>
      <point x="83" y="390"/>
    </contour>
    <contour>
      <point x="371" y="173" type="curve"/>
      <point x="372" y="198" type="line"/>
      <point x="333" y="213"/>
      <point x="286" y="225"/>
      <point x="240" y="225" type="curve" smooth="yes"/>
      <point x="122" y="225"/>
      <point x="60" y="161"/>
      <point x="60" y="97" type="curve" smooth="yes"/>
      <point x="60" y="31"/>
      <point x="121" y="-16"/>
      <point x="204" y="-16" type="curve" smooth="yes"/>
      <point x="274" y="-16"/>
      <point x="334" y="18"/>
      <point x="376" y="69" type="curve"/>
      <point x="366" y="86" type="line"/>
      <point x="328" y="44"/>
      <point x="276" y="22"/>
      <point x="223" y="22" type="curve" smooth="yes"/>
      <point x="163" y="22"/>
      <point x="119" y="60"/>
      <point x="119" y="107" type="curve" smooth="yes"/>
      <point x="119" y="153"/>
      <point x="155" y="198"/>
      <point x="243" y="198" type="curve" smooth="yes"/>
      <point x="292" y="198"/>
      <point x="333" y="186"/>
    </contour>
  </outline>
</glyph>
<glyph name="d" format="2">
  <advance width="537"/>
  <unicode hex="0064"/>
  <outline>
    <contour>
      <point x="454" y="692" type="line" smooth="yes"/>
      <point x="454.0" y="706.0"/>
      <point x="446" y="715"/>
      <point x="435" y="715" type="curve" smooth="yes"/>
      <point x="427" y="715"/>
      <point x="420" y="714"/>
      <point x="408" y="709" type="curve" smooth="yes"/>
      <point x="337" y="677" type="line" smooth="yes"/>
      <point x="330" y="674"/>
      <point x="324" y="667"/>
      <point x="324" y="663" type="curve" smooth="yes"/>
      <point x="324" y="657"/>
      <point x="329" y="652"/>
      <point x="335" y="652" type="curve" smooth="yes"/>
      <point x="382" y="652" type="line" smooth="yes"/>
      <point x="398" y="652"/>
      <point x="410.0" y="642.0"/>
      <point x="410" y="625" type="curve" smooth="yes"/>
      <point x="410" y="26" type="line" smooth="yes"/>
      <point x="410" y="9"/>
      <point x="420" y="0"/>
      <point x="436" y="0" type="curve" smooth="yes"/>
      <point x="513" y="0" type="line" smooth="yes"/>
      <point x="528" y="0"/>
      <point x="534" y="5"/>
      <point x="534" y="14" type="curve" smooth="yes"/>
      <point x="534" y="23"/>
      <point x="528" y="26"/>
      <point x="519" y="28" type="curve" smooth="yes"/>
      <point x="476" y="36" type="line" smooth="yes"/>
      <point x="463" y="38"/>
      <point x="454" y="49"/>
      <point x="454" y="70" type="curve" smooth="yes"/>
    </contour>
    <contour>
      <point x="434" y="116" type="line"/>
      <point x="383" y="59"/>
      <point x="326" y="30"/>
      <point x="262" y="30" type="curve" smooth="yes"/>
      <point x="148" y="30"/>
      <point x="91" y="121"/>
      <point x="91" y="229" type="curve" smooth="yes"/>
      <point x="91" y="343"/>
      <point x="166" y="439"/>
      <point x="288" y="439" type="curve" smooth="yes"/>
      <point x="345" y="439"/>
      <point x="396" y="415"/>
      <point x="425" y="369" type="curve"/>
      <point x="446" y="383" type="line"/>
      <point x="413" y="439"/>
      <point x="353" y="467"/>
      <point x="285" y="467" type="curve" smooth="yes"/>
      <point x="136" y="467"/>
      <point x="41" y="349"/>
      <point x="41" y="206" type="curve" smooth="yes"/>
      <point x="41" y="86"/>
      <point x="114" y="-14"/>
      <point x="236" y="-14" type="curve" smooth="yes"/>
      <point x="316" y="-14"/>
      <point x="388" y="28"/>
      <point x="446" y="104" type="curve"/>
    </contour>
  </outline>
</glyph>
<glyph name="e" format="2">
  <advance width="478"/>
  <unicode hex="0065"/>
  <anchor x="275" y="528" name="center"/>
  <outline>
    <contour>
      <point x="432" y="294" type="curve" smooth="yes"/>
      <point x="432" y="397"/>
      <point x="365" y="466"/>
      <point x="272" y="466" type="curve" smooth="yes"/>
      <point x="136" y="466"/>
      <point x="42" y="351"/>
      <point x="42" y="211" type="curve" smooth="yes"/>
      <point x="42" y="92"/>
      <point x="127" y="-16"/>
      <point x="252" y="-16" type="curve" smooth="yes"/>
      <point x="350" y="-16"/>
      <point x="427" y="46"/>
      <point x="427" y="101" type="curve" smooth="yes"/>
      <point x="427" y="108"/>
      <point x="424" y="113"/>
      <point x="420" y="113" type="curve" smooth="yes"/>
      <point x="412" y="113"/>
      <point x="406" y="109"/>
      <point x="401" y="98" type="curve" smooth="yes"/>
      <point x="379" y="57"/>
      <point x="336" y="30"/>
      <point x="277" y="30" type="curve" smooth="yes"/>
      <point x="168" y="30"/>
      <point x="89" y="112"/>
      <point x="89" y="239" type="curve" smooth="yes"/>
      <point x="89" y="341"/>
      <point x="152" y="434"/>
      <point x="252" y="434" type="curve" smooth="yes"/>
      <point x="326" y="434"/>
      <point x="373" y="379"/>
      <point x="373" y="309" type="curve" smooth="yes"/>
      <point x="373" y="294"/>
      <point x="361" y="285"/>
      <point x="346" y="285" type="curve" smooth="yes"/>
      <point x="66" y="285" type="line"/>
      <point x="66" y="259" type="line"/>
      <point x="395" y="259" type="line" smooth="yes"/>
      <point x="416" y="259"/>
      <point x="432" y="271"/>
    </contour>
  </outline>
</glyph>
<glyph name="g" format="2">
  <advance width="513"/>
  <unicode hex="0067"/>
  <outline>
    <contour>
      <point x="353" y="26" type="curve" smooth="yes"/>
      <point x="472" y="-12"/>
      <point x="499" y="-48"/>
      <point x="499" y="-102" type="curve" smooth="yes"/>
      <point x="499" y="-185"/>
      <point x="409" y="-245"/>
      <point x="253" y="-245" type="curve" smooth="yes"/>
      <point x="100" y="-245"/>
      <point x="26" y="-192"/>
      <point x="26" y="-121" type="curve" smooth="yes"/>
      <point x="26" y="-52"/>
      <point x="78" y="5"/>
      <point x="220" y="25" type="curve"/>
      <point x="228" y="-3" type="line"/>
      <point x="158" y="-12"/>
      <point x="122" y="-54"/>
      <point x="122" y="-96" type="curve" smooth="yes"/>
      <point x="122" y="-156"/>
      <point x="173" y="-197"/>
      <point x="285" y="-197" type="curve" smooth="yes"/>
      <point x="381" y="-197"/>
      <point x="422" y="-169"/>
      <point x="422" y="-128" type="curve" smooth="yes"/>
      <point x="422" y="-97"/>
      <point x="402" y="-82"/>
      <point x="294" y="-45" type="curve" smooth="yes"/>
      <point x="197" y="-12"/>
      <point x="166" y="19"/>
      <point x="166" y="63" type="curve" smooth="yes"/>
      <point x="166" y="99"/>
      <point x="187" y="140"/>
      <point x="226" y="151" type="curve"/>
      <point x="234" y="142" type="line"/>
      <point x="221" y="133"/>
      <point x="217" y="123"/>
      <point x="217" y="112" type="curve" smooth="yes"/>
      <point x="217" y="81"/>
      <point x="237" y="63"/>
    </contour>
    <contour>
      <point x="466" y="302" type="curve" smooth="yes"/>
      <point x="466" y="196"/>
      <point x="378" y="114"/>
      <point x="258" y="114" type="curve" smooth="yes"/>
      <point x="124" y="114"/>
      <point x="43" y="194"/>
      <point x="43" y="287" type="curve" smooth="yes"/>
      <point x="43" y="397"/>
      <point x="126" y="480"/>
      <point x="261" y="480" type="curve" smooth="yes"/>
      <point x="395" y="480"/>
      <point x="466" y="394"/>
    </contour>
    <contour>
      <point x="347" y="451" type="line" smooth="yes"/>
      <point x="369" y="477" type="line" smooth="yes"/>
      <point x="405" y="519"/>
      <point x="432" y="536"/>
      <point x="460" y="536" type="curve" smooth="yes"/>
      <point x="488" y="536"/>
      <point x="512" y="514"/>
      <point x="512" y="481" type="curve" smooth="yes"/>
      <point x="512" y="456"/>
      <point x="492" y="437"/>
      <point x="471" y="437" type="curve" smooth="yes"/>
      <point x="457" y="437"/>
      <point x="450" y="443"/>
      <point x="444" y="448" type="curve" smooth="yes"/>
      <point x="432" y="457"/>
      <point x="425" y="461"/>
      <point x="415" y="461" type="curve" smooth="yes"/>
      <point x="402" y="461"/>
      <point x="395" y="456"/>
      <point x="370" y="431" type="curve"/>
    </contour>
    <contour>
      <point x="237" y="430" type="curve" smooth="yes"/>
      <point x="178" y="430"/>
      <point x="135" y="387"/>
      <point x="135" y="325" type="curve" smooth="yes"/>
      <point x="135" y="239"/>
      <point x="192" y="164"/>
      <point x="274" y="164" type="curve" smooth="yes"/>
      <point x="326" y="164"/>
      <point x="372" y="200"/>
      <point x="372" y="264" type="curve" smooth="yes"/>
      <point x="372" y="360"/>
      <point x="315" y="430"/>
    </contour>
  </outline>
</glyph>
<glyph name="h" format="2">
  <advance width="601"/>
  <unicode hex="0068"/>
  <outline>
    <contour>
      <point x="163" y="372" type="line" smooth="yes"/>
      <point x="147" y="393" type="line"/>
      <point x="173" y="416" type="line" smooth="yes"/>
      <point x="234" y="470"/>
      <point x="278" y="486"/>
      <point x="332" y="486" type="curve" smooth="yes"/>
      <point x="401" y="486"/>
      <point x="458" y="440"/>
      <point x="470" y="351" type="curve" smooth="yes"/>
      <point x="509" y="73" type="line" smooth="yes"/>
      <point x="511" y="59"/>
      <point x="520" y="48"/>
      <point x="531" y="43" type="curve" smooth="yes"/>
      <point x="570" y="24" type="line" smooth="yes"/>
      <point x="576" y="21"/>
      <point x="578" y="17"/>
      <point x="578" y="12" type="curve" smooth="yes"/>
      <point x="578" y="5"/>
      <point x="573" y="0"/>
      <point x="560" y="0" type="curve" smooth="yes"/>
      <point x="394" y="0" type="line" smooth="yes"/>
      <point x="383" y="0"/>
      <point x="376" y="6"/>
      <point x="376" y="14" type="curve" smooth="yes"/>
      <point x="376" y="21"/>
      <point x="381" y="26"/>
      <point x="388" y="28" type="curve" smooth="yes"/>
      <point x="437" y="42" type="line" smooth="yes"/>
      <point x="451" y="46"/>
      <point x="459" y="57"/>
      <point x="456" y="77" type="curve" smooth="yes"/>
      <point x="422" y="343" type="line" smooth="yes"/>
      <point x="412" y="417"/>
      <point x="369" y="448"/>
      <point x="312" y="448" type="curve" smooth="yes"/>
      <point x="276" y="448"/>
      <point x="236" y="435"/>
      <point x="182" y="388" type="curve" smooth="yes"/>
    </contour>
    <component base="l"/>
  </outline>
</glyph>
<glyph name="n" format="2">
  <advance width="585"/>
  <unicode hex="006E"/>
  <outline>
    <contour>
      <point x="176" y="446" type="line" smooth="yes"/>
      <point x="176" y="459"/>
      <point x="170" y="466"/>
      <point x="161" y="466" type="curve" smooth="yes"/>
      <point x="154" y="466"/>
      <point x="145" y="463"/>
      <point x="133" y="458" type="curve" smooth="yes"/>
      <point x="54" y="426" type="line" smooth="yes"/>
      <point x="48" y="423"/>
      <point x="40" y="416"/>
      <point x="40" y="409" type="curve" smooth="yes"/>
      <point x="40" y="401"/>
      <point x="47" y="398"/>
      <point x="56" y="398" type="curve" smooth="yes"/>
      <point x="107" y="398" type="line" smooth="yes"/>
      <point x="122" y="398"/>
      <point x="132" y="388"/>
      <point x="132" y="374" type="curve" smooth="yes"/>
      <point x="132" y="73" type="line" smooth="yes"/>
      <point x="132" y="55"/>
      <point x="120" y="46"/>
      <point x="105" y="40" type="curve" smooth="yes"/>
      <point x="65" y="26" type="line" smooth="yes"/>
      <point x="54" y="22"/>
      <point x="48" y="19"/>
      <point x="48" y="11" type="curve" smooth="yes"/>
      <point x="48" y="4"/>
      <point x="55" y="0"/>
      <point x="66" y="0" type="curve" smooth="yes"/>
      <point x="234" y="0" type="line" smooth="yes"/>
      <point x="248" y="0"/>
      <point x="253" y="5"/>
      <point x="253" y="12" type="curve" smooth="yes"/>
      <point x="253" y="20"/>
      <point x="249" y="23"/>
      <point x="237" y="27" type="curve" smooth="yes"/>
      <point x="202" y="40" type="line" smooth="yes"/>
      <point x="184" y="47"/>
      <point x="176" y="56"/>
      <point x="176" y="72" type="curve" smooth="yes"/>
    </contour>
    <contour>
      <point x="165" y="357" type="line" smooth="yes"/>
      <point x="183" y="372" type="line" smooth="yes"/>
      <point x="235" y="417"/>
      <point x="274" y="430"/>
      <point x="308" y="430" type="curve" smooth="yes"/>
      <point x="363" y="430"/>
      <point x="404" y="400"/>
      <point x="413" y="329" type="curve" smooth="yes"/>
      <point x="446" y="74" type="line" smooth="yes"/>
      <point x="448" y="54"/>
      <point x="442" y="44"/>
      <point x="427" y="40" type="curve" smooth="yes"/>
      <point x="381" y="27" type="line" smooth="yes"/>
      <point x="373" y="25"/>
      <point x="369" y="20"/>
      <point x="369" y="13" type="curve" smooth="yes"/>
      <point x="369" y="5"/>
      <point x="376" y="0"/>
      <point x="387" y="0" type="curve" smooth="yes"/>
      <point x="546" y="0" type="line" smooth="yes"/>
      <point x="558" y="0"/>
      <point x="564" y="5"/>
      <point x="564" y="11" type="curve" smooth="yes"/>
      <point x="564" y="16"/>
      <point x="562" y="20"/>
      <point x="556" y="23" type="curve" smooth="yes"/>
      <point x="518" y="41" type="line" smooth="yes"/>
      <point x="508" y="47"/>
      <point x="499" y="56"/>
      <point x="496" y="70" type="curve" smooth="yes"/>
      <point x="460" y="337" type="line" smooth="yes"/>
      <point x="448" y="422"/>
      <point x="393" y="466"/>
      <point x="326" y="466" type="curve" smooth="yes"/>
      <point x="276" y="466"/>
      <point x="233" y="449"/>
      <point x="175" y="397" type="curve" smooth="yes"/>
      <point x="150" y="375" type="line"/>
    </contour>
  </outline>
</glyph>
<glyph name="o" format="2">
  <advance width="552"/>
  <unicode hex="006F"/>
  <outline>
    <contour>
      <point x="283" y="467" type="curve" smooth="yes"/>
      <point x="142" y="467"/>
      <point x="41" y="372"/>
      <point x="41" y="233" type="curve" smooth="yes"/>
      <point x="41" y="95"/>
      <point x="129" y="-15"/>
      <point x="266" y="-15" type="curve" smooth="yes"/>
      <point x="410" y="-15"/>
      <point x="509" y="87"/>
      <point x="509" y="233" type="curve" smooth="yes"/>
      <point x="509" y="366"/>
      <point x="419" y="467"/>
    </contour>
    <contour>
      <point x="455" y="206" type="curve" smooth="yes"/>
      <point x="455" y="105"/>
      <point x="393" y="21"/>
      <point x="291" y="21" type="curve" smooth="yes"/>
      <point x="163" y="21"/>
      <point x="92" y="129"/>
      <point x="92" y="256" type="curve" smooth="yes"/>
      <point x="92" y="355"/>
      <point x="156" y="432"/>
      <point x="260" y="432" type="curve" smooth="yes"/>
      <point x="386" y="432"/>
      <point x="455" y="330"/>
    </contour>
  </outline>
</glyph>
<glyph name="w" format="2">
  <advance width="792"/>
  <unicode hex="0077"/>
  <outline>
    <contour>
      <point x="229" y="-10" type="curve" smooth="yes"/>
      <point x="247" y="-10" type="line" smooth="yes"/>
      <point x="261" y="-10"/>
      <point x="272" y="-1"/>
      <point x="282" y="23" type="curve" smooth="yes"/>
      <point x="415" y="327" type="line"/>
      <point x="386" y="385" type="line"/>
      <point x="253" y="67" type="line" smooth="yes"/>
      <point x="272" y="63" type="line"/>
      <point x="162" y="362" type="line" smooth="yes"/>
      <point x="157" y="375"/>
      <point x="152" y="384"/>
      <point x="152" y="396" type="curve" smooth="yes"/>
      <point x="152" y="408"/>
      <point x="161" y="413"/>
      <point x="180" y="418" type="curve" smooth="yes"/>
      <point x="203" y="424" type="line" smooth="yes"/>
      <point x="216" y="427"/>
      <point x="224" y="435"/>
      <point x="224" y="448" type="curve" smooth="yes"/>
      <point x="224" y="460"/>
      <point x="214" y="465"/>
      <point x="197" y="465" type="curve" smooth="yes"/>
      <point x="38" y="465" type="line" smooth="yes"/>
      <point x="14" y="465"/>
      <point x="5" y="456"/>
      <point x="5" y="442" type="curve" smooth="yes"/>
      <point x="5" y="430"/>
      <point x="17" y="422"/>
      <point x="33" y="411" type="curve" smooth="yes"/>
      <point x="43" y="404"/>
      <point x="53" y="395"/>
      <point x="59" y="378" type="curve" smooth="yes"/>
      <point x="190" y="25" type="line" smooth="yes"/>
      <point x="198" y="2"/>
      <point x="211" y="-10"/>
    </contour>
    <contour>
      <point x="566" y="-10" type="line" smooth="yes"/>
      <point x="580" y="-10"/>
      <point x="592" y="-4"/>
      <point x="601" y="20" type="curve" smooth="yes"/>
      <point x="723" y="347" type="line" smooth="yes"/>
      <point x="734" y="376"/>
      <point x="746" y="390"/>
      <point x="764" y="406" type="curve" smooth="yes"/>
      <point x="777" y="418"/>
      <point x="787" y="427"/>
      <point x="787" y="443" type="curve" smooth="yes"/>
      <point x="787" y="456"/>
      <point x="777" y="465"/>
      <point x="756" y="465" type="curve" smooth="yes"/>
      <point x="622" y="465" type="line" smooth="yes"/>
      <point x="608" y="465"/>
      <point x="600" y="459"/>
      <point x="600" y="446" type="curve" smooth="yes"/>
      <point x="600" y="435"/>
      <point x="607" y="427"/>
      <point x="619" y="422" type="curve" smooth="yes"/>
      <point x="650" y="410" type="line" smooth="yes"/>
      <point x="671" y="402"/>
      <point x="674" y="393"/>
      <point x="674" y="382" type="curve" smooth="yes"/>
      <point x="674" y="363"/>
      <point x="669" y="352"/>
      <point x="659" y="324" type="curve" smooth="yes"/>
      <point x="572" y="67" type="line" smooth="yes"/>
      <point x="586" y="63" type="line"/>
      <point x="465" y="362" type="line" smooth="yes"/>
      <point x="460" y="374"/>
      <point x="458" y="383"/>
      <point x="458" y="394" type="curve" smooth="yes"/>
      <point x="458" y="406"/>
      <point x="463" y="410"/>
      <point x="478" y="417" type="curve" smooth="yes"/>
      <point x="497" y="425" type="line" smooth="yes"/>
      <point x="509" y="431"/>
      <point x="517" y="436"/>
      <point x="517" y="448" type="curve" smooth="yes"/>
      <point x="517" y="460"/>
      <point x="507" y="465"/>
      <point x="490" y="465" type="curve" smooth="yes"/>
      <point x="311" y="465" type="line" smooth="yes"/>
      <point x="299" y="465"/>
      <point x="293" y="458"/>
      <point x="293" y="448" type="curve" smooth="yes"/>
      <point x="293" y="438"/>
      <point x="302" y="431"/>
      <point x="321" y="421" type="curve" smooth="yes"/>
      <point x="339" y="412"/>
      <point x="355" y="395"/>
      <point x="362" y="378" type="curve" smooth="yes"/>
      <point x="510" y="23" type="line" smooth="yes"/>
      <point x="520" y="0"/>
      <point x="533" y="-10"/>
      <point x="548" y="-10" type="curve" smooth="yes"/>
    </contour>
  </outline>
</glyph>
<glyph name="bar" format="2">
  <advance width="357"/>
  <unicode hex="007C"/>
  <outline>
    <contour>
      <point x="141" y="711" type="curve" smooth="yes"/>
      <point x="153" y="592"/>
      <point x="153" y="347"/>
      <point x="153" y="265" type="curve" smooth="yes"/>
      <point x="153" y="168"/>
      <point x="153" y="-67"/>
      <point x="141" y="-187" type="curve" smooth="yes"/>
      <point x="140" y="-195"/>
      <point x="140" y="-202"/>
      <point x="140" y="-210" type="curve" smooth="yes"/>
      <point x="140" y="-235"/>
      <point x="155" y="-250"/>
      <point x="178" y="-250" type="curve" smooth="yes"/>
      <point x="200" y="-250"/>
      <point x="213" y="-235"/>
      <point x="213" y="-213" type="curve" smooth="yes"/>
      <point x="213" y="-204"/>
      <point x="213" y="-195"/>
      <point x="212" y="-184" type="curve" smooth="yes"/>
      <point x="205" y="-63"/>
      <point x="202" y="161"/>
      <point x="202" y="263" type="curve" smooth="yes"/>
      <point x="202" y="339"/>
      <point x="201" y="594"/>
      <point x="208" y="710" type="curve" smooth="yes"/>
      <point x="209" y="724"/>
      <point x="209" y="725"/>
      <point x="209" y="727" type="curve" smooth="yes"/>
      <point x="209" y="748"/>
      <point x="196" y="765"/>
      <point x="175" y="765" type="curve" smooth="yes"/>
      <point x="155" y="765"/>
      <point x="141" y="750"/>
      <point x="141" y="725" type="curve" smooth="yes"/>
      <point x="141" y="721"/>
      <point x="141" y="716"/>
    </contour>
  </outline>
</glyph>
<glyph name="cent" format="2">
  <advance width="458"/>
  <unicode hex="00A2"/>
  <outline>
    <contour>
      <point x="225" y="-34" type="curve" smooth="yes"/>
      <point x="225" y="-59"/>
      <point x="238" y="-70"/>
      <point x="252" y="-70" type="curve" smooth="yes"/>
      <point x="270" y="-70"/>
      <point x="283" y="-58"/>
      <point x="284" y="-34" type="curve" smooth="yes"/>
      <point x="285" y="10"/>
      <point x="270" y="63"/>
      <point x="270" y="335" type="curve" smooth="yes"/>
      <point x="270" y="581"/>
      <point x="282" y="626"/>
      <point x="282" y="668" type="curve" smooth="yes"/>
      <point x="282" y="692"/>
      <point x="267" y="704"/>
      <point x="252" y="704" type="curve" smooth="yes"/>
      <point x="236" y="704"/>
      <point x="221" y="693"/>
      <point x="221" y="670" type="curve" smooth="yes"/>
      <point x="221" y="633"/>
      <point x="233" y="585"/>
      <point x="233" y="335" type="curve" smooth="yes"/>
      <point x="233" y="65"/>
      <point x="225" y="10"/>
    </contour>
    <component base="c" yOffset="91"/>
  </outline>
</glyph>
<glyph name="currency" format="2">
  <advance width="494"/>
  <unicode hex="00A4"/>
  <outline>
    <contour>
      <point x="246" y="153" type="curve" smooth="yes"/>
      <point x="152" y="153"/>
      <point x="75" y="233"/>
      <point x="75" y="326" type="curve" smooth="yes"/>
      <point x="75" y="420"/>
      <point x="152" y="497"/>
      <point x="246" y="497" type="curve" smooth="yes"/>
      <point x="342" y="497"/>
      <point x="418" y="420"/>
      <point x="418" y="326" type="curve" smooth="yes"/>
      <point x="418" y="233"/>
      <point x="342" y="153"/>
    </contour>
    <contour>
      <point x="247" y="215" type="curve" smooth="yes"/>
      <point x="306" y="215"/>
      <point x="357" y="264"/>
      <point x="357" y="326" type="curve" smooth="yes"/>
      <point x="357" y="388"/>
      <point x="306" y="436"/>
      <point x="247" y="436" type="curve" smooth="yes"/>
      <point x="185" y="436"/>
      <point x="138" y="388"/>
      <point x="138" y="326" type="curve" smooth="yes"/>
      <point x="138" y="264"/>
      <point x="185" y="215"/>
    </contour>
    <contour>
      <point x="58" y="517" type="curve" smooth="yes"/>
      <point x="69" y="527"/>
      <point x="82" y="528"/>
      <point x="94" y="517" type="curve" smooth="yes"/>
      <point x="170" y="441" type="line"/>
      <point x="133" y="404" type="line"/>
      <point x="58" y="479" type="line" smooth="yes"/>
      <point x="47" y="490"/>
      <point x="47" y="505"/>
    </contour>
    <contour>
      <point x="354" y="398" type="line"/>
      <point x="317" y="434" type="line"/>
      <point x="399" y="516" type="line" smooth="yes"/>
      <point x="410" y="527"/>
      <point x="425" y="527"/>
      <point x="437" y="516" type="curve" smooth="yes"/>
      <point x="447" y="505"/>
      <point x="447" y="491"/>
      <point x="436" y="480" type="curve" smooth="yes"/>
    </contour>
    <contour>
      <point x="359" y="251" type="line"/>
      <point x="436" y="174" type="line" smooth="yes"/>
      <point x="447" y="163"/>
      <point x="447" y="149"/>
      <point x="437" y="138" type="curve" smooth="yes"/>
      <point x="425" y="127"/>
      <point x="410" y="127"/>
      <point x="399" y="138" type="curve" smooth="yes"/>
      <point x="323" y="214" type="line"/>
    </contour>
    <contour>
      <point x="58" y="137" type="curve" smooth="yes"/>
      <point x="47" y="149"/>
      <point x="47" y="164"/>
      <point x="58" y="175" type="curve" smooth="yes"/>
      <point x="136" y="253" type="line"/>
      <point x="173" y="217" type="line"/>
      <point x="94" y="137" type="line" smooth="yes"/>
      <point x="82" y="126"/>
      <point x="69" y="127"/>
    </contour>
  </outline>
</glyph>
<glyph name="Thorn" format="2">
  <advance width="648"/>
  <unicode hex="00DE"/>
  <outline>
    <contour>
      <point x="175" y="517" type="line"/>
      <point x="341" y="517" type="line" smooth="yes"/>
      <point x="438" y="517"/>
      <point x="513" y="462"/>
      <point x="513" y="355" type="curve" smooth="yes"/>
      <point x="513" y="245"/>
      <point x="444" y="189"/>
      <point x="352" y="189" type="curve" smooth="yes"/>
      <point x="263" y="189"/>
      <point x="221" y="208"/>
      <point x="174" y="234" type="curve"/>
      <point x="164" y="189" type="line"/>
      <point x="227" y="154"/>
      <point x="276" y="141"/>
      <point x="355" y="141" type="curve" smooth="yes"/>
      <point x="514" y="141"/>
      <point x="623" y="205"/>
      <point x="623" y="337" type="curve" smooth="yes"/>
      <point x="623" y="485"/>
      <point x="507" y="571"/>
      <point x="346" y="571" type="curve" smooth="yes"/>
      <point x="175" y="571" type="line"/>
    </contour>
    <contour>
      <point x="235" y="92" type="curve" smooth="yes"/>
      <point x="235" y="607" type="line" smooth="yes"/>
      <point x="235" y="634"/>
      <point x="247" y="648"/>
      <point x="272" y="652" type="curve" smooth="yes"/>
      <point x="307" y="658" type="line" smooth="yes"/>
      <point x="324" y="661"/>
      <point x="335" y="667"/>
      <point x="335" y="681" type="curve" smooth="yes"/>
      <point x="335" y="694"/>
      <point x="325" y="700"/>
      <point x="304" y="700" type="curve" smooth="yes"/>
      <point x="72" y="700" type="line" smooth="yes"/>
      <point x="50" y="700"/>
      <point x="41" y="694"/>
      <point x="41" y="681" type="curve" smooth="yes"/>
      <point x="41" y="667"/>
      <point x="51" y="661"/>
      <point x="69" y="658" type="curve" smooth="yes"/>
      <point x="94" y="652" type="line" smooth="yes"/>
      <point x="118" y="647"/>
      <point x="131" y="634"/>
      <point x="131" y="607" type="curve" smooth="yes"/>
      <point x="131" y="92" type="line" smooth="yes"/>
      <point x="131" y="66"/>
      <point x="118" y="53"/>
      <point x="94" y="48" type="curve" smooth="yes"/>
      <point x="69" y="42" type="line" smooth="yes"/>
      <point x="51" y="38"/>
      <point x="41" y="33"/>
      <point x="41" y="19" type="curve" smooth="yes"/>
      <point x="41" y="6"/>
      <point x="50" y="0"/>
      <point x="72" y="0" type="curve" smooth="yes"/>
      <point x="304" y="0" type="line" smooth="yes"/>
      <point x="325" y="0"/>
      <point x="335" y="6"/>
      <point x="335" y="19" type="curve" smooth="yes"/>
      <point x="335" y="33"/>
      <point x="324" y="39"/>
      <point x="307" y="42" type="curve" smooth="yes"/>
      <point x="272" y="48" type="line" smooth="yes"/>
      <point x="247" y="52"/>
      <point x="235" y="66"/>
    </contour>
  </outline>
</glyph>
<glyph name="dotlessi" format="2">
  <advance width="305"/>
  <unicode hex="0131"/>
  <outline>
    <contour>
      <point x="183" y="447" type="line" smooth="yes"/>
      <point x="183" y="459"/>
      <point x="178" y="466"/>
      <point x="169" y="466" type="curve" smooth="yes"/>
      <point x="161" y="466"/>
      <point x="153" y="463"/>
      <point x="140" y="458" type="curve" smooth="yes"/>
      <point x="62" y="427" type="line" smooth="yes"/>
      <point x="57" y="424"/>
      <point x="49" y="417"/>
      <point x="49" y="411" type="curve" smooth="yes"/>
      <point x="49" y="403"/>
      <point x="57" y="400"/>
      <point x="65" y="400" type="curve" smooth="yes"/>
      <point x="112" y="400" type="line" smooth="yes"/>
      <point x="128" y="400"/>
      <point x="138" y="389"/>
      <point x="138" y="373" type="curve" smooth="yes"/>
      <point x="138" y="74" type="line" smooth="yes"/>
      <point x="138" y="56"/>
      <point x="128" y="46"/>
      <point x="109" y="39" type="curve" smooth="yes"/>
      <point x="70" y="24" type="line" smooth="yes"/>
      <point x="60" y="20"/>
      <point x="54" y="17"/>
      <point x="54" y="10" type="curve" smooth="yes"/>
      <point x="54" y="3"/>
      <point x="60" y="0"/>
      <point x="71" y="0" type="curve" smooth="yes"/>
      <point x="244" y="0" type="line" smooth="yes"/>
      <point x="256" y="0"/>
      <point x="261" y="4"/>
      <point x="261" y="10" type="curve" smooth="yes"/>
      <point x="261" y="18"/>
      <point x="257" y="21"/>
      <point x="247" y="25" type="curve" smooth="yes"/>
      <point x="210" y="38" type="line" smooth="yes"/>
      <point x="192" y="45"/>
      <point x="183" y="53"/>
      <point x="183" y="73" type="curve" smooth="yes"/>
    </contour>
  </outline>
</glyph>
<glyph name="tbar" format="2">
  <advance width="330"/>
  <unicode hex="0167"/>
  <outline>
    <contour>
      <point x="5" y="263" type="curve" smooth="yes"/>
      <point x="5" y="250"/>
      <point x="12" y="242"/>
      <point x="25" y="242" type="curve" smooth="yes"/>
      <point x="278" y="242" type="line" smooth="yes"/>
      <point x="291" y="242"/>
      <point x="300" y="250"/>
      <point x="300" y="263" type="curve" smooth="yes"/>
      <point x="300" y="275"/>
      <point x="291" y="284"/>
      <point x="278" y="284" type="curve" smooth="yes"/>
      <point x="26" y="284" type="line" smooth="yes"/>
      <point x="14" y="284"/>
      <point x="5" y="275"/>
    </contour>
    <component base="t"/>
  </outline>
</glyph>
<glyph name="minute" format="2">
  <advance width="284"/>
  <unicode hex="2032"/>
  <outline>
    <contour>
      <point x="66" y="447" type="curve" smooth="yes"/>
      <point x="70" y="445"/>
      <point x="74" y="444"/>
      <point x="78" y="444" type="curve" smooth="yes"/>
      <point x="86" y="444"/>
      <point x="93" y="449"/>
      <point x="99" y="459" type="curve" smooth="yes"/>
      <point x="230" y="678" type="line" smooth="yes"/>
      <point x="241" y="696"/>
      <point x="244" y="709"/>
      <point x="244" y="723" type="curve" smooth="yes"/>
      <point x="244" y="744"/>
      <point x="227" y="758"/>
      <point x="206" y="758" type="curve" smooth="yes"/>
      <point x="183" y="758"/>
      <point x="164" y="748"/>
      <point x="152" y="720" type="curve" smooth="yes"/>
      <point x="52" y="482" type="line" smooth="yes"/>
      <point x="50" y="478"/>
      <point x="50" y="474"/>
      <point x="50" y="470" type="curve" smooth="yes"/>
      <point x="50" y="460"/>
      <point x="55" y="451"/>
    </contour>
  </outline>
</glyph>
<glyph name="lira" format="2">
  <advance width="532"/>
  <unicode hex="20A4"/>
  <outline>
    <contour>
      <point x="71" y="361" type="curve" smooth="yes"/>
      <point x="71" y="348"/>
      <point x="78" y="340"/>
      <point x="91" y="340" type="curve" smooth="yes"/>
      <point x="353" y="340" type="line" smooth="yes"/>
      <point x="366" y="340"/>
      <point x="375" y="348"/>
      <point x="375" y="361" type="curve" smooth="yes"/>
      <point x="375" y="373"/>
      <point x="366" y="382"/>
      <point x="353" y="382" type="curve" smooth="yes"/>
      <point x="92" y="382" type="line" smooth="yes"/>
      <point x="80" y="382"/>
      <point x="71" y="373"/>
    </contour>
    <contour>
      <point x="71" y="257" type="curve" smooth="yes"/>
      <point x="71" y="244"/>
      <point x="78" y="236"/>
      <point x="91" y="236" type="curve" smooth="yes"/>
      <point x="353" y="236" type="line" smooth="yes"/>
      <point x="366" y="236"/>
      <point x="375" y="244"/>
      <point x="375" y="257" type="curve" smooth="yes"/>
      <point x="375" y="269"/>
      <point x="366" y="278"/>
      <point x="353" y="278" type="curve" smooth="yes"/>
      <point x="92" y="278" type="line" smooth="yes"/>
      <point x="80" y="278"/>
      <point x="71" y="269"/>
    </contour>
    <contour>
      <point x="131" y="42" type="curve"/>
      <point x="204" y="42"/>
      <point x="289" y="-15"/>
      <point x="371" y="-15" type="curve" smooth="yes"/>
      <point x="447" y="-15"/>
      <point x="498" y="19"/>
      <point x="498" y="86" type="curve" smooth="yes"/>
      <point x="498" y="125"/>
      <point x="471" y="150"/>
      <point x="436" y="150" type="curve" smooth="yes"/>
      <point x="408" y="150"/>
      <point x="389" y="132"/>
      <point x="389" y="107" type="curve" smooth="yes"/>
      <point x="389" y="81" type="line" smooth="yes"/>
      <point x="389" y="60"/>
      <point x="369" y="48"/>
      <point x="343" y="48" type="curve" smooth="yes"/>
      <point x="287" y="48"/>
      <point x="203" y="96"/>
      <point x="123" y="96" type="curve" smooth="yes"/>
      <point x="64" y="96"/>
      <point x="25" y="69"/>
      <point x="25" y="30" type="curve" smooth="yes"/>
      <point x="25" y="3"/>
      <point x="50" y="-15"/>
      <point x="89" y="-15" type="curve" smooth="yes"/>
      <point x="164" y="-15"/>
      <point x="253" y="45"/>
      <point x="253" y="183" type="curve" smooth="yes"/>
      <point x="253" y="278"/>
      <point x="215" y="378"/>
      <point x="215" y="488" type="curve" smooth="yes"/>
      <point x="215" y="580"/>
      <point x="244" y="604"/>
      <point x="282" y="604" type="curve" smooth="yes"/>
      <point x="319" y="604"/>
      <point x="350" y="585"/>
      <point x="350" y="546" type="curve" smooth="yes"/>
      <point x="350" y="531" type="line" smooth="yes"/>
      <point x="350" y="496"/>
      <point x="376" y="472"/>
      <point x="405" y="472" type="curve" smooth="yes"/>
      <point x="440" y="472"/>
      <point x="462" y="494"/>
      <point x="462" y="532" type="curve" smooth="yes"/>
      <point x="462" y="600"/>
      <point x="414" y="651"/>
      <point x="310" y="651" type="curve" smooth="yes"/>
      <point x="198" y="651"/>
      <point x="116" y="577"/>
      <point x="116" y="454" type="curve" smooth="yes"/>
      <point x="116" y="326"/>
      <point x="182" y="212"/>
      <point x="182" y="101" type="curve" smooth="yes"/>
      <point x="182" y="67"/>
      <point x="153" y="51"/>
    </contour>
  </outline>
</glyph>
<glyph name="kip" format="2">
  <advance width="638"/>
  <unicode hex="20AD"/>
  <outline>
    <contour>
      <point x="588" y="334" type="curve" smooth="yes"/>
      <point x="613" y="334"/>
      <point x="624" y="347"/>
      <point x="624" y="361" type="curve" smooth="yes"/>
      <point x="624" y="380"/>
      <point x="612" y="393"/>
      <point x="588" y="394" type="curve" smooth="yes"/>
      <point x="556" y="395"/>
      <point x="517" y="379"/>
      <point x="319" y="379" type="curve" smooth="yes"/>
      <point x="132" y="379"/>
      <point x="98" y="391"/>
      <point x="66" y="391" type="curve" smooth="yes"/>
      <point x="42" y="391"/>
      <point x="30" y="374"/>
      <point x="30" y="357" type="curve" smooth="yes"/>
      <point x="30" y="343"/>
      <point x="41" y="330"/>
      <point x="64" y="330" type="curve" smooth="yes"/>
      <point x="92" y="330"/>
      <point x="129" y="342"/>
      <point x="319" y="342" type="curve" smooth="yes"/>
      <point x="516" y="342"/>
      <point x="556" y="334"/>
    </contour>
    <component base="K" xScale="0.909" yScale="0.909" xOffset="4"/>
  </outline>
</glyph>
<glyph name="manat" format="2">
  <advance width="731"/>
  <unicode hex="20BC"/>
  <outline>
    <contour>
      <point x="121" y="337" type="curve" smooth="yes"/>
      <point x="121" y="246"/>
      <point x="121" y="83"/>
      <point x="121" y="83" type="curve" smooth="yes"/>
      <point x="121" y="59"/>
      <point x="109" y="48"/>
      <point x="88" y="43" type="curve" smooth="yes"/>
      <point x="65" y="38" type="line" smooth="yes"/>
      <point x="49" y="34"/>
      <point x="40" y="30"/>
      <point x="40" y="17" type="curve" smooth="yes"/>
      <point x="40" y="5"/>
      <point x="48" y="0"/>
      <point x="68" y="0" type="curve" smooth="yes"/>
      <point x="268" y="0" type="line" smooth="yes"/>
      <point x="287" y="0"/>
      <point x="296" y="5"/>
      <point x="296" y="17" type="curve" smooth="yes"/>
      <point x="296" y="30"/>
      <point x="286" y="34"/>
      <point x="270" y="38" type="curve" smooth="yes"/>
      <point x="248" y="43" type="line" smooth="yes"/>
      <point x="225" y="48"/>
      <point x="215" y="59"/>
      <point x="215" y="83" type="curve" smooth="yes"/>
      <point x="215" y="83"/>
      <point x="215" y="277"/>
      <point x="215" y="357" type="curve" smooth="yes"/>
      <point x="215" y="500"/>
      <point x="272" y="585"/>
      <point x="357" y="585" type="curve" smooth="yes"/>
      <point x="467" y="585"/>
      <point x="516" y="490"/>
      <point x="516" y="337" type="curve" smooth="yes"/>
      <point x="516" y="83" type="line" smooth="yes"/>
      <point x="516" y="59"/>
      <point x="504" y="48"/>
      <point x="483" y="43" type="curve" smooth="yes"/>
      <point x="460" y="38" type="line" smooth="yes"/>
      <point x="444" y="34"/>
      <point x="435" y="30"/>
      <point x="435" y="17" type="curve" smooth="yes"/>
      <point x="435" y="5"/>
      <point x="443" y="0"/>
      <point x="463" y="0" type="curve" smooth="yes"/>
      <point x="663" y="0" type="line" smooth="yes"/>
      <point x="682" y="0"/>
      <point x="691" y="5"/>
      <point x="691" y="17" type="curve" smooth="yes"/>
      <point x="691" y="30"/>
      <point x="681" y="34"/>
      <point x="666" y="38" type="curve" smooth="yes"/>
      <point x="643" y="43" type="line" smooth="yes"/>
      <point x="620" y="48"/>
      <point x="610" y="59"/>
      <point x="610" y="83" type="curve" smooth="yes"/>
      <point x="610" y="83"/>
      <point x="610" y="269"/>
      <point x="610" y="357" type="curve" smooth="yes"/>
      <point x="610" y="491"/>
      <point x="537" y="633"/>
      <point x="378" y="633" type="curve" smooth="yes"/>
      <point x="206" y="633"/>
      <point x="121" y="499"/>
    </contour>
    <contour>
      <point x="337" y="143" type="curve" smooth="yes"/>
      <point x="337" y="118"/>
      <point x="350" y="107"/>
      <point x="364" y="107" type="curve" smooth="yes"/>
      <point x="383" y="107"/>
      <point x="396" y="119"/>
      <point x="397" y="143" type="curve" smooth="yes"/>
      <point x="398" y="173"/>
      <point x="385" y="207"/>
      <point x="385" y="385" type="curve" smooth="yes"/>
      <point x="385" y="582"/>
      <point x="397" y="620"/>
      <point x="397" y="653" type="curve" smooth="yes"/>
      <point x="397" y="677"/>
      <point x="382" y="689"/>
      <point x="367" y="689" type="curve" smooth="yes"/>
      <point x="351" y="689"/>
      <point x="336" y="678"/>
      <point x="336" y="655" type="curve" smooth="yes"/>
      <point x="336" y="625"/>
      <point x="348" y="586"/>
      <point x="348" y="385" type="curve" smooth="yes"/>
      <point x="348" y="208"/>
      <point x="337" y="173"/>
    </contour>
  </outline>
</glyph>
<glyph name="approxequal" format="2">
  <advance width="487"/>
  <unicode hex="2248"/>
  <outline>
    <contour>
      <point x="50" y="366" type="curve" smooth="yes"/>
      <point x="50" y="405"/>
      <point x="84" y="434"/>
      <point x="144" y="434" type="curve" smooth="yes"/>
      <point x="212" y="434"/>
      <point x="304" y="388"/>
      <point x="355" y="388" type="curve" smooth="yes"/>
      <point x="399" y="388"/>
      <point x="384" y="432"/>
      <point x="417" y="432" type="curve" smooth="yes"/>
      <point x="430" y="432"/>
      <point x="437" y="420"/>
      <point x="437" y="404" type="curve" smooth="yes"/>
      <point x="437" y="360"/>
      <point x="401" y="340"/>
      <point x="351" y="340" type="curve" smooth="yes"/>
      <point x="270" y="340"/>
      <point x="176" y="384"/>
      <point x="141" y="384" type="curve" smooth="yes"/>
      <point x="98" y="384"/>
      <point x="111" y="341"/>
      <point x="76" y="341" type="curve" smooth="yes"/>
      <point x="61" y="341"/>
      <point x="50" y="352"/>
    </contour>
    <contour>
      <point x="50" y="218" type="curve" smooth="yes"/>
      <point x="50" y="257"/>
      <point x="84" y="286"/>
      <point x="144" y="286" type="curve" smooth="yes"/>
      <point x="212" y="286"/>
      <point x="304" y="240"/>
      <point x="355" y="240" type="curve" smooth="yes"/>
      <point x="399" y="240"/>
      <point x="384" y="284"/>
      <point x="417" y="284" type="curve" smooth="yes"/>
      <point x="430" y="284"/>
      <point x="437" y="272"/>
      <point x="437" y="256" type="curve" smooth="yes"/>
      <point x="437" y="212"/>
      <point x="401" y="192"/>
      <point x="351" y="192" type="curve" smooth="yes"/>
      <point x="270" y="192"/>
      <point x="176" y="236"/>
      <point x="141" y="236" type="curve" smooth="yes"/>
      <point x="98" y="236"/>
      <point x="111" y="193"/>
      <point x="76" y="193" type="curve" smooth="yes"/>
      <point x="61" y="193"/>
      <point x="50" y="204"/>
    </contour>
  </outline>
</glyph>
